<?xml version="1.0" encoding="utf-8"?>
<!-- Generator: Adobe Illustrator 16.0.0, SVG Export Plug-In . SVG Version: 6.00 Build 0)  -->
<!DOCTYPE svg PUBLIC "-//W3C//DTD SVG 1.1//EN" "http://www.w3.org/Graphics/SVG/1.1/DTD/svg11.dtd">
<svg version="1.1"
	 id="svg2" xmlns:dc="http://purl.org/dc/elements/1.1/" xmlns:cc="http://creativecommons.org/ns#" xmlns:rdf="http://www.w3.org/1999/02/22-rdf-syntax-ns#" xmlns:svg="http://www.w3.org/2000/svg" xmlns:sodipodi="http://sodipodi.sourceforge.net/DTD/sodipodi-0.dtd" xmlns:inkscape="http://www.inkscape.org/namespaces/inkscape" sodipodi:docname="impacta.svg" inkscape:version="0.92.2 (unknown)"
	 xmlns="http://www.w3.org/2000/svg" xmlns:xlink="http://www.w3.org/1999/xlink" x="0px" y="0px" width="204.84px"
	 height="58.07px" viewBox="0 0 204.84 58.07" enable-background="new 0 0 204.84 58.07" xml:space="preserve">
<sodipodi:namedview  id="namedview4" bordercolor="#666666" pagecolor="#ffffff" borderopacity="1" objecttolerance="10" gridtolerance="10" guidetolerance="10" showgrid="false" showguides="true" inkscape:zoom="1" inkscape:cx="527.97297" inkscape:cy="225.60971" inkscape:pageopacity="0" inkscape:pageshadow="2" inkscape:window-width="1853" inkscape:window-height="1025" inkscape:current-layer="layer3" inkscape:guide-bbox="true" inkscape:window-x="67" inkscape:window-y="27" inkscape:window-maximized="1">
	<sodipodi:guide  position="194.01857,155.78613" orientation="0,1" inkscape:locked="false" id="guide152"></sodipodi:guide>
	<sodipodi:guide  position="151.61133,131.83594" orientation="0,1" inkscape:locked="false" id="guide154"></sodipodi:guide>
</sodipodi:namedview>
<g id="layer2" transform="translate(0,230)" inkscape:label="Layer 2" sodipodi:insensitive="true" inkscape:groupmode="layer" display="none">
	
		<image display="inline" overflow="visible" enable-background="new    " width="225" height="70" id="image144" xlink:href="55155112.png"  transform="matrix(1 0 0 1 37.5 -115.0012)">
	</image>
</g>
<g id="layer3" inkscape:label="Layer 3" inkscape:groupmode="layer">
	<g id="g1641" transform="translate(0.027343,0.039065)">
		<g id="g1170" transform="translate(-0.42784956,-6.2573286)">
			<rect id="rect156" x="16.141" y="23.249" fill="#FFFFFF" width="6.152" height="23.95"/>
			<path id="rect156-3" inkscape:connector-curvature="0" fill="#FFFFFF" d="M24.93,23.25v10.748v13.201h6.152V33.998h0.831
				l5.183,13.201h5.672l4.883-13.201h1.01v13.201h6.152V23.25h-9.836l-5.006,13.777L34.766,23.25h-3.684H24.93z"/>
			<path id="rect156-7" sodipodi:nodetypes="ccccccscccccccccccccc" inkscape:connector-curvature="0" fill="#FFFFFF" d="
				M57.449,23.25v23.949h6.151v-7.064h8.687v-0.01c4.025-0.142,7.246-3.868,7.227-8.42c-0.02-4.332-3.293-7.859-6.682-8.455h-9.23
				h-1.088H57.449z M70.772,29.59c0.021,0.001,0.043,0.002,0.063,0.004c1.286,0.031,2.312,0.974,2.313,2.127
				c0,1.154-1.027,2.099-2.313,2.129v0.002h-0.063h-7.17v-4.258h7.057C70.695,29.592,70.734,29.591,70.772,29.59z"/>
			<rect id="rect156-7-5" x="146.44" y="23.249" fill="#FFFFFF" width="6.151" height="23.95"/>
			<rect id="rect156-7-5-3" x="137.539" y="23.249" fill="#FFFFFF" width="23.951" height="6.151"/>
			<path id="path1024" inkscape:connector-curvature="0" fill="#FFFFFF" d="M155.172,47.199l5.988-10.369h8.897l-5.985,10.369
				H155.172z"/>
			<path id="path1024-5" sodipodi:nodetypes="ccccc" inkscape:connector-curvature="0" fill="#FFFFFF" d="M189.5,47.199
				l-13.678-23.95h-8.899l13.678,23.95H189.5z"/>
			<g id="g1061" transform="translate(-70.071934,-4.91013)">
				<path id="path1024-6" inkscape:connector-curvature="0" fill="#FFFFFF" d="M145.161,52.109l5.987-10.368h8.898l-5.986,10.368
					H145.161z"/>
				<path id="path1024-5-2" sodipodi:nodetypes="ccccc" inkscape:connector-curvature="0" fill="#FFFFFF" d="M179.488,52.109
					L165.81,28.159h-8.898l13.678,23.949H179.488z"/>
			</g>
			<path id="path1121" inkscape:connector-curvature="0" fill="#FFFFFF" d="M121.795,23.28c-8.043,0-14.563,5.366-14.563,11.987
				c-0.002,6.622,6.519,11.99,14.561,11.99c0.001,0,0.002,0,0.002,0c6.887-0.006,12.826-3.983,14.236-9.533h-7.431
				c-1.155,2.204-3.725,3.624-6.557,3.625c-3.97,0-7.188-2.742-7.188-6.125s3.219-6.125,7.188-6.125l0,0
				c2.83,0.003,5.396,1.423,6.551,3.625h7.422C134.565,27.214,128.644,23.283,121.795,23.28z"/>
		</g>
		<g id="g1624">
			<path id="rect1172" inkscape:connector-curvature="0" fill="#FFFFFF" d="M-0.027-0.039v16.75h3.182V2.966h13.701v-3.005H-0.027z
				 M-0.027,41.281v16.75h16.883v-3.447H3.153V41.281H-0.027z"/>
			<path id="rect1172-0" inkscape:connector-curvature="0" fill="#FFFFFF" d="M187.932-0.039v3.005h13.654v13.745h3.227v-16.75
				H187.932z M201.586,41.281v13.303h-13.654v3.447h16.881v-16.75H201.586z"/>
		</g>
	</g>
</g>
</svg>
